<svg xmlns="http://www.w3.org/2000/svg" viewBox="0 0 92 92" width="92" height="92"><circle cx="25.0" cy="9.63" r="1.5190000000000001" fill="#d9d9e6"/><circle cx="32.0" cy="9.63" r="1.5190000000000001" fill="#d9d9e6"/><circle cx="39.0" cy="9.63" r="1.5190000000000001" fill="#d9d9e6"/><circle cx="46.0" cy="9.63" r="1.5190000000000001" fill="#d9d9e6"/><circle cx="53.0" cy="9.63" r="1.5190000000000001" fill="#d9d9e6"/><circle cx="60.0" cy="9.63" r="1.5190000000000001" fill="#d9d9e6"/><circle cx="67.0" cy="9.63" r="1.5190000000000001" fill="#d9d9e6"/><circle cx="21.5" cy="15.69" r="1.5190000000000001" fill="#d9d9e6"/><circle cx="28.5" cy="15.69" r="1.5190000000000001" fill="#d9d9e6"/><circle cx="35.5" cy="15.69" r="1.5190000000000001" fill="#d9d9e6"/><circle cx="42.5" cy="15.69" r="1.5190000000000001" fill="#d9d9e6"/><circle cx="49.5" cy="15.69" r="1.5190000000000001" fill="#d9d9e6"/><circle cx="56.5" cy="15.69" r="1.5190000000000001" fill="#d9d9e6"/><circle cx="63.5" cy="15.69" r="1.5190000000000001" fill="#d9d9e6"/><circle cx="70.5" cy="15.69" r="1.5190000000000001" fill="#d9d9e6"/><circle cx="18.0" cy="21.75" r="1.5190000000000001" fill="#d9d9e6"/><circle cx="25.0" cy="21.75" r="2.45" fill="#c24d7a"/><circle cx="32.0" cy="21.75" r="2.45" fill="#c24d7a"/><circle cx="39.0" cy="21.75" r="2.45" fill="#c24d7a"/><circle cx="46.0" cy="21.75" r="2.45" fill="#3a3f9a"/><circle cx="53.0" cy="21.75" r="1.5190000000000001" fill="#d9d9e6"/><circle cx="60.0" cy="21.75" r="1.5190000000000001" fill="#d9d9e6"/><circle cx="67.0" cy="21.75" r="1.5190000000000001" fill="#d9d9e6"/><circle cx="74.0" cy="21.75" r="1.5190000000000001" fill="#d9d9e6"/><circle cx="14.5" cy="27.81" r="1.5190000000000001" fill="#d9d9e6"/><circle cx="21.5" cy="27.81" r="2.45" fill="#c24d7a"/><circle cx="28.5" cy="27.81" r="2.45" fill="#c24d7a"/><circle cx="35.5" cy="27.81" r="2.45" fill="#3a3f9a"/><circle cx="42.5" cy="27.81" r="2.45" fill="#3a3f9a"/><circle cx="49.5" cy="27.81" r="2.45" fill="#3a3f9a"/><circle cx="56.5" cy="27.81" r="1.5190000000000001" fill="#d9d9e6"/><circle cx="63.5" cy="27.81" r="1.5190000000000001" fill="#d9d9e6"/><circle cx="70.5" cy="27.81" r="1.5190000000000001" fill="#d9d9e6"/><circle cx="77.5" cy="27.81" r="1.5190000000000001" fill="#d9d9e6"/><circle cx="11.0" cy="33.88" r="1.5190000000000001" fill="#d9d9e6"/><circle cx="18.0" cy="33.88" r="2.45" fill="#c24d7a"/><circle cx="25.0" cy="33.88" r="2.45" fill="#c24d7a"/><circle cx="32.0" cy="33.88" r="2.45" fill="#3a3f9a"/><circle cx="39.0" cy="33.88" r="2.45" fill="#3a3f9a"/><circle cx="46.0" cy="33.88" r="2.45" fill="#3a3f9a"/><circle cx="53.0" cy="33.88" r="2.45" fill="#3a3f9a"/><circle cx="60.0" cy="33.88" r="2.45" fill="#3a3f9a"/><circle cx="67.0" cy="33.88" r="2.45" fill="#3a3f9a"/><circle cx="74.0" cy="33.88" r="1.5190000000000001" fill="#d9d9e6"/><circle cx="81.0" cy="33.88" r="1.5190000000000001" fill="#d9d9e6"/><circle cx="7.5" cy="39.94" r="1.5190000000000001" fill="#d9d9e6"/><circle cx="14.5" cy="39.94" r="1.5190000000000001" fill="#d9d9e6"/><circle cx="21.5" cy="39.94" r="2.45" fill="#c24d7a"/><circle cx="28.5" cy="39.94" r="2.45" fill="#3a3f9a"/><circle cx="35.5" cy="39.94" r="2.45" fill="#3a3f9a"/><circle cx="42.5" cy="39.94" r="2.45" fill="#3a3f9a"/><circle cx="49.5" cy="39.94" r="2.45" fill="#3a3f9a"/><circle cx="56.5" cy="39.94" r="2.45" fill="#3a3f9a"/><circle cx="63.5" cy="39.94" r="2.45" fill="#3a3f9a"/><circle cx="70.5" cy="39.94" r="2.45" fill="#3a3f9a"/><circle cx="77.5" cy="39.94" r="2.45" fill="#3a3f9a"/><circle cx="84.5" cy="39.94" r="1.5190000000000001" fill="#d9d9e6"/><circle cx="4.0" cy="46.0" r="1.5190000000000001" fill="#d9d9e6"/><circle cx="11.0" cy="46.0" r="1.5190000000000001" fill="#d9d9e6"/><circle cx="18.0" cy="46.0" r="2.45" fill="#c24d7a"/><circle cx="25.0" cy="46.0" r="2.45" fill="#c24d7a"/><circle cx="32.0" cy="46.0" r="2.45" fill="#3a3f9a"/><circle cx="39.0" cy="46.0" r="2.45" fill="#3a3f9a"/><circle cx="46.0" cy="46.0" r="2.45" fill="#3a3f9a"/><circle cx="53.0" cy="46.0" r="2.45" fill="#c24d7a"/><circle cx="60.0" cy="46.0" r="2.45" fill="#3a3f9a"/><circle cx="67.0" cy="46.0" r="2.45" fill="#3a3f9a"/><circle cx="74.0" cy="46.0" r="2.45" fill="#3a3f9a"/><circle cx="81.0" cy="46.0" r="2.45" fill="#3a3f9a"/><circle cx="88.0" cy="46.0" r="1.5190000000000001" fill="#d9d9e6"/><circle cx="7.5" cy="52.06" r="1.5190000000000001" fill="#d9d9e6"/><circle cx="14.5" cy="52.06" r="1.5190000000000001" fill="#d9d9e6"/><circle cx="21.5" cy="52.06" r="2.45" fill="#c24d7a"/><circle cx="28.5" cy="52.06" r="2.45" fill="#3a3f9a"/><circle cx="35.5" cy="52.06" r="2.45" fill="#3a3f9a"/><circle cx="42.5" cy="52.06" r="2.45" fill="#3a3f9a"/><circle cx="49.5" cy="52.06" r="2.45" fill="#c24d7a"/><circle cx="56.5" cy="52.06" r="2.45" fill="#c24d7a"/><circle cx="63.5" cy="52.06" r="2.45" fill="#3a3f9a"/><circle cx="70.5" cy="52.06" r="2.45" fill="#3a3f9a"/><circle cx="77.5" cy="52.06" r="2.45" fill="#3a3f9a"/><circle cx="84.5" cy="52.06" r="1.5190000000000001" fill="#d9d9e6"/><circle cx="11.0" cy="58.12" r="1.5190000000000001" fill="#d9d9e6"/><circle cx="18.0" cy="58.12" r="1.5190000000000001" fill="#d9d9e6"/><circle cx="25.0" cy="58.12" r="2.45" fill="#c24d7a"/><circle cx="32.0" cy="58.12" r="2.45" fill="#c24d7a"/><circle cx="39.0" cy="58.12" r="2.45" fill="#3a3f9a"/><circle cx="46.0" cy="58.12" r="2.45" fill="#3a3f9a"/><circle cx="53.0" cy="58.12" r="2.45" fill="#c24d7a"/><circle cx="60.0" cy="58.12" r="2.45" fill="#3a3f9a"/><circle cx="67.0" cy="58.12" r="2.45" fill="#3a3f9a"/><circle cx="74.0" cy="58.12" r="2.45" fill="#3a3f9a"/><circle cx="81.0" cy="58.12" r="1.5190000000000001" fill="#d9d9e6"/><circle cx="14.5" cy="64.19" r="1.5190000000000001" fill="#d9d9e6"/><circle cx="21.5" cy="64.19" r="1.5190000000000001" fill="#d9d9e6"/><circle cx="28.5" cy="64.19" r="2.45" fill="#c24d7a"/><circle cx="35.5" cy="64.19" r="2.45" fill="#c24d7a"/><circle cx="42.5" cy="64.19" r="2.45" fill="#3a3f9a"/><circle cx="49.5" cy="64.19" r="2.45" fill="#3a3f9a"/><circle cx="56.5" cy="64.19" r="2.45" fill="#3a3f9a"/><circle cx="63.5" cy="64.19" r="2.45" fill="#3a3f9a"/><circle cx="70.5" cy="64.19" r="2.45" fill="#3a3f9a"/><circle cx="77.5" cy="64.19" r="1.5190000000000001" fill="#d9d9e6"/><circle cx="18.0" cy="70.25" r="1.5190000000000001" fill="#d9d9e6"/><circle cx="25.0" cy="70.25" r="1.5190000000000001" fill="#d9d9e6"/><circle cx="32.0" cy="70.25" r="1.5190000000000001" fill="#d9d9e6"/><circle cx="39.0" cy="70.25" r="1.5190000000000001" fill="#d9d9e6"/><circle cx="46.0" cy="70.25" r="1.5190000000000001" fill="#d9d9e6"/><circle cx="53.0" cy="70.25" r="1.5190000000000001" fill="#d9d9e6"/><circle cx="60.0" cy="70.25" r="1.5190000000000001" fill="#d9d9e6"/><circle cx="67.0" cy="70.25" r="1.5190000000000001" fill="#d9d9e6"/><circle cx="74.0" cy="70.25" r="1.5190000000000001" fill="#d9d9e6"/><circle cx="21.5" cy="76.31" r="1.5190000000000001" fill="#d9d9e6"/><circle cx="28.5" cy="76.31" r="1.5190000000000001" fill="#d9d9e6"/><circle cx="35.5" cy="76.31" r="1.5190000000000001" fill="#d9d9e6"/><circle cx="42.5" cy="76.31" r="1.5190000000000001" fill="#d9d9e6"/><circle cx="49.5" cy="76.31" r="1.5190000000000001" fill="#d9d9e6"/><circle cx="56.5" cy="76.31" r="1.5190000000000001" fill="#d9d9e6"/><circle cx="63.5" cy="76.31" r="1.5190000000000001" fill="#d9d9e6"/><circle cx="70.5" cy="76.31" r="1.5190000000000001" fill="#d9d9e6"/><circle cx="25.0" cy="82.37" r="1.5190000000000001" fill="#d9d9e6"/><circle cx="32.0" cy="82.37" r="1.5190000000000001" fill="#d9d9e6"/><circle cx="39.0" cy="82.37" r="1.5190000000000001" fill="#d9d9e6"/><circle cx="46.0" cy="82.37" r="1.5190000000000001" fill="#d9d9e6"/><circle cx="53.0" cy="82.37" r="1.5190000000000001" fill="#d9d9e6"/><circle cx="60.0" cy="82.37" r="1.5190000000000001" fill="#d9d9e6"/><circle cx="67.0" cy="82.37" r="1.5190000000000001" fill="#d9d9e6"/></svg>